<svg id="Layer_1" data-name="Layer 1" xmlns="http://www.w3.org/2000/svg" viewBox="0 0 239.58 101.52">
  <defs>
    <style>
      .cls-1, .cls-2, .cls-3, .cls-4, .cls-5, .cls-6 {
        fill: #fff;
      }

      .cls-1, .cls-2, .cls-3, .cls-4, .cls-5 {
        fill-rule: evenodd;
      }

      .cls-1 {
        opacity: 0.3;
      }

      .cls-1, .cls-2 {
        isolation: isolate;
      }

      .cls-2 {
        opacity: 0.6;
      }

      .cls-3 {
        opacity: 0.3;
      }

      .cls-4 {
        opacity: 0.1;
      }

      .cls-5 {
        stroke: #0072bb;
        stroke-miterlimit: 10;
        opacity: 0.6;
      }
    </style>
  </defs>
  <path class="cls-1" d="M5.18,86A51.37,51.37,0,0,1,19.83,61.89c12.87,1.28,24.25-4.5,30.55-8.71-6,4.69-15,13.73-17.73,26.36A51.09,51.09,0,0,1,5.18,86Z" transform="translate(-0.17 0.24)"/>
  <path class="cls-2" d="M5.18,15.94s14.74-1,27.47,6.48c2.76,12.63,11.78,21.67,17.73,26.36-6.3-4.21-17.68-10-30.54-8.71C8.82,30.25,5.18,15.94,5.18,15.94Z" transform="translate(-0.17 0.24)"/>
  <path class="cls-3" d="M.17,51C15.34,38.45,34.69,39.23,50,51,34.92,63.46,15.45,62.77.17,51Z" transform="translate(-0.17 0.24)"/>
  <path class="cls-4" d="M36.92,101.28A38.74,38.74,0,0,1,52.31,53.92,38.71,38.71,0,0,1,36.92,101.28Z" transform="translate(-0.17 0.24)"/>
  <path class="cls-5" d="M36.63.51A38.74,38.74,0,0,1,52,47.87,38.72,38.72,0,0,1,36.63.51Z" transform="translate(-0.17 0.24)"/>
  <g>
    <path class="cls-6" d="M53.05,41.92a14.78,14.78,0,0,1-.63-4.45c0-3.69,3.6-8,7.69-8,2.43,0,3.47,1.26,3.47,2.34s-.9,2.79-3.06,5.85c.58,3.24,1.71,8.86,2.2,13l7.47-9c1.35-5.58,4-8.33,7.74-8.33,1.62,0,3.2.95,3.2,2.75,0,1.39-2.48,3.28-5.18,6a95.9,95.9,0,0,0-2.29,17c0,.54.27.72.67.72.63,0,3.33-1.75,6.44-6.21A1.59,1.59,0,0,1,82.52,55c0,3-7.87,10.89-12.19,10.89-2.75,0-3.69-1.22-3.69-3.83,0-3.51.36-6.25,2-13l-5.49,6.75c0,4.14-3.55,9.5-7.42,9.5a3.4,3.4,0,0,1-3.69-3.6c0-1.13.67-2.16,3.42-4.73-.27-3.69-.77-8.05-.95-9.31-6.34,15.61-11.2,20.7-17.05,20.7-4.41,0-6.66-2.48-6.66-6.84,0-4.86,2.61-8.06,5.76-8.06a2.5,2.5,0,0,1,2.47,1.35,13.86,13.86,0,0,0-1.3,4.86c0,2,.49,2.48,1.93,2.61C41.8,62.26,45.49,58.17,53.05,41.92Z" transform="translate(-0.17 0.24)"/>
    <path class="cls-6" d="M78.92,57.67c0-6.79,5.54-13.72,9.9-13.72,3.11,0,4.82,1.48,4.82,4.63,0,3.78-2.21,6.71-8.37,8.1,0,2,.4,3.15,2.16,3.15,3.06,0,7-2.61,9.58-6.52a1.61,1.61,0,0,1,1.71,1.48c0,3.33-7.51,10.49-13.36,10.49C81,65.28,78.92,62.53,78.92,57.67Zm8.78-9c-.63,0-1.85,1.53-2.16,4.68,2.52-.45,3.06-1.84,3.06-3.19C88.6,49.21,88.24,48.67,87.7,48.67Z" transform="translate(-0.17 0.24)"/>
    <path class="cls-6" d="M109.7,50.16a8.68,8.68,0,0,1-1.21,3.42c-1,2.07-1.94,4.27-1.94,5.4,0,.63.18,1.08.77,1.08,1.26,0,4.41-2.79,6.79-6.53a1.71,1.71,0,0,1,1.89,1.4c0,2.83-7.69,10.84-11.83,10.84-2.75,0-4.28-1.21-4.28-3.78,0-3,2.21-6.79,2.21-8,0-.54-.5-.81-1.49-1.22a26.79,26.79,0,0,1-3.91,5.9A1.71,1.71,0,0,1,94.9,57a1.93,1.93,0,0,1,.31-1.08A22,22,0,0,0,98,51.24a2.68,2.68,0,0,1-.67-1.85c0-3.15,4.72-7.6,7.24-7.6,1.53,0,2.57.72,2.57,1.93a2.88,2.88,0,0,1-.14.9,6.47,6.47,0,0,0-2.61,2.25,12,12,0,0,0,2.12.81C109.16,48.45,109.7,49.08,109.7,50.16Z" transform="translate(-0.17 0.24)"/>
    <path class="cls-6" d="M121.45,41.65c0-1-.54-2-2.25-2.7a3.15,3.15,0,0,1-.36-1.53,3.75,3.75,0,0,1,3.91-3.91c2.84,0,4.64,2.38,4.64,5.13,0,5-5,9.94-8.15,9.94-1.39,0-2.11-.72-2.11-1.84a3.1,3.1,0,0,1,.13-.86C119.42,44.76,121.45,42.82,121.45,41.65Z" transform="translate(-0.17 0.24)"/>
    <path class="cls-6" d="M132.07,55.11a3.55,3.55,0,0,1-1.17,2.47c.36,2,1.89,3.33,2.92,3.33a.92.92,0,0,0,1-1c0-2.3-2.61-7.74-2.61-10.53,0-3.78,3.06-6.39,7.15-6.39,2.61,0,4.14,1.12,4.14,3.28a3.59,3.59,0,0,1-.94,2.43,6.28,6.28,0,0,0-2.39-.54c-.94,0-1.44.27-1.44,1.08,0,2,2.57,5.76,2.57,9,0,5.44-4.64,7.56-8.69,7.56-3.51,0-6.25-2.39-6.25-6.84,0-2.66.72-7,2.92-7C130.81,52,132.07,54,132.07,55.11Z" transform="translate(-0.17 0.24)"/>
    <path class="cls-6" d="M162.22,45.75c0,1.62-1.22,3.06-3.65,3.06-2.74,0-5.58-3.33-5.58-7.38,0-5,3.38-9.72,9.81-9.72a33.45,33.45,0,0,1,7.11.72c11.34,2,14.76,2.34,19.13,2.38a3,3,0,0,1,.54,1.71c0,2.84-2.75,4.73-6.12,4.73a23.31,23.31,0,0,1-5.9-.81A43.82,43.82,0,0,0,176,47.05a17.14,17.14,0,0,0,1.94.23,16.4,16.4,0,0,0,4.72-.68,2.58,2.58,0,0,1,.81,1.76c0,3-2.25,4.41-5.31,4.41a18.13,18.13,0,0,1-3.06-.41c-.13.77-1.12,4.77-1.26,5.4-1.8,8-5.8,13.86-12.19,13.86-4.5,0-6.89-2.52-6.89-6.43,0-3.38,2.12-7.16,12.78-14.27a3.3,3.3,0,0,1-1.21-2.47,2.17,2.17,0,0,1,1.21-2,3.76,3.76,0,0,1,1.58-.36,25.15,25.15,0,0,1,2.92-7,34.75,34.75,0,0,0-10.44-2c-2.43,0-3.55,1.17-3.55,3.29C158.08,42.15,159.11,44,162.22,45.75Zm-1.71,18.81c0,1.84.67,2.52,1.66,2.52,1.67,0,3.42-3.69,4.82-11.39C161.81,60.51,160.51,62.89,160.51,64.56Z" transform="translate(-0.17 0.24)"/>
    <path class="cls-6" d="M187.42,64.87c-2.57,0-4.46-2.11-4.46-6.21,0-6.75,5.58-13.81,10.08-13.81a1.53,1.53,0,0,1,1.17.31l.14-2.61a2.07,2.07,0,0,1,1.57-.58c3.06,0,4.73,2.07,4.73,3.64a12.05,12.05,0,0,1-.5,3c-1.57,5.67-2.16,8.51-2.16,9.68,0,.9.18,1,.54,1,.9,0,3.24-1.71,6.12-5.76a1.51,1.51,0,0,1,1.67,1.4c0,2.92-7.47,10.17-10.71,10.17-2,0-3.24-.81-3.24-3.69a13.5,13.5,0,0,1,.13-1.76C191.06,63.75,189,64.87,187.42,64.87ZM194,48.09a11.23,11.23,0,0,0-4.41,8.64c0,1.66.54,1.84,1.17,1.84a2.52,2.52,0,0,0,1.8-1.12Z" transform="translate(-0.17 0.24)"/>
    <path class="cls-6" d="M217.34,50.16a8.68,8.68,0,0,1-1.21,3.42c-1,2.07-1.94,4.27-1.94,5.4,0,.63.18,1.08.77,1.08,1.26,0,4.41-2.79,6.79-6.53a1.71,1.71,0,0,1,1.89,1.4c0,2.83-7.69,10.84-11.83,10.84-2.75,0-4.28-1.21-4.28-3.78,0-3,2.21-6.79,2.21-8,0-.54-.5-.81-1.49-1.22a26.79,26.79,0,0,1-3.91,5.9,1.71,1.71,0,0,1-1.8-1.76,1.93,1.93,0,0,1,.31-1.08,22,22,0,0,0,2.79-4.63,2.68,2.68,0,0,1-.67-1.85c0-3.15,4.72-7.6,7.24-7.6,1.53,0,2.57.72,2.57,1.93a2.88,2.88,0,0,1-.14.9A6.47,6.47,0,0,0,212,46.87a12,12,0,0,0,2.12.81C216.8,48.45,217.34,49.08,217.34,50.16Z" transform="translate(-0.17 0.24)"/>
    <path class="cls-6" d="M220,57.67c0-6.79,5.54-13.72,9.9-13.72,3.11,0,4.82,1.48,4.82,4.63,0,3.78-2.21,6.71-8.37,8.1,0,2,.4,3.15,2.16,3.15,3.06,0,7-2.61,9.58-6.52a1.61,1.61,0,0,1,1.71,1.48c0,3.33-7.51,10.49-13.36,10.49C222,65.28,220,62.53,220,57.67Zm8.78-9c-.63,0-1.85,1.53-2.16,4.68,2.52-.45,3.06-1.84,3.06-3.19C229.63,49.21,229.27,48.67,228.73,48.67Z" transform="translate(-0.17 0.24)"/>
  </g>
</svg>
